<?xml version="1.0" standalone="no"?>
<svg viewBox="0 0 200 200" xmlns="http://www.w3.org/2000/svg">
  <path fill="#B065D1" d="M41.2,-72C52.7,-64.8,60.9,-52.3,67.3,-39.4C73.7,-26.6,78.4,-13.3,80.6,1.3C82.8,15.8,82.4,31.6,75.8,44.1C69.2,56.6,56.3,65.8,42.6,71.5C28.9,77.1,14.4,79.3,0.9,77.7C-12.6,76.1,-25.3,70.9,-37.1,64.2C-49,57.5,-60,49.2,-67.6,38.3C-75.3,27.3,-79.5,13.7,-78.7,0.5C-77.8,-12.7,-71.9,-25.4,-62.6,-33.4C-53.3,-41.5,-40.6,-44.9,-29.6,-52.4C-18.6,-59.9,-9.3,-71.4,2.8,-76.2C14.9,-81,29.7,-79.2,41.2,-72Z" transform="translate(100 100)" />
</svg>
