<?xml version="1.0" standalone="no"?>
<svg viewBox="0 0 200 200" xmlns="http://www.w3.org/2000/svg">
  <path fill="rgba(176,101,209,0.64)" d="M17.7,-29.6C24.6,-26.6,33.2,-25.4,35.1,-20.7C37,-16.1,32.3,-8,38.8,3.8C45.4,15.6,63.3,31.2,66,43.9C68.8,56.6,56.4,66.4,42.9,70.6C29.3,74.9,14.7,73.5,3.2,67.9C-8.2,62.3,-16.4,52.5,-23.5,44.6C-30.7,36.6,-36.8,30.7,-42.3,23.6C-47.7,16.5,-52.5,8.3,-51.7,0.5C-50.8,-7.3,-44.3,-14.6,-42,-27.1C-39.7,-39.6,-41.5,-57.3,-35.2,-60.7C-28.9,-64.1,-14.4,-53.2,-4.5,-45.3C5.4,-37.4,10.7,-32.6,17.7,-29.6Z" transform="translate(100,100)" />
</svg>
