<?xml version="1.0" encoding="utf-8"?>
<!-- Generator: Adobe Illustrator 24.2.3, SVG Export Plug-In . SVG Version: 6.00 Build 0)  -->
<svg version="1.1" id="Capa_1" xmlns="http://www.w3.org/2000/svg" xmlns:xlink="http://www.w3.org/1999/xlink" x="0px" y="0px"
	 viewBox="0 0 612 792" style="enable-background:new 0 0 612 792;" xml:space="preserve">
<style type="text/css">
	.st0{fill:#FFFFFF;}
	.st1{fill:#921E30;}
	.st2{fill:url(#SVGID_1_);}
	.st3{fill:url(#SVGID_2_);}
	.st4{fill:url(#SVGID_3_);}
	.st5{fill:url(#SVGID_4_);}
	.st6{fill:url(#SVGID_5_);}
	.st7{fill:url(#SVGID_6_);}
	.st8{fill:url(#SVGID_7_);}
	.st9{fill:url(#SVGID_8_);}
	.st10{fill:#080A00;}
	.st11{fill:none;}
</style>
<g>
	<g>
		<path class="st0" d="M299.74,114.18c-58.2,0-113.3,29.74-154.93,83.77c-42.38,55-65.77,128.31-65.77,206.45
			c0,78.16,23.38,151.51,65.77,206.46c41.63,54,96.72,83.75,154.93,83.75c58.34,0,113.4-29.75,155.03-83.75
			c42.43-54.95,65.78-128.29,65.78-206.46c0-78.14-23.35-151.45-65.78-206.45C413.14,143.92,358.08,114.18,299.74,114.18z"/>
		<path class="st1" d="M533.89,404.41c0,167.64-104.79,303.57-234.15,303.57c-129.27,0-234.08-135.93-234.08-303.57
			c0-167.64,104.81-303.56,234.08-303.56C429.1,100.85,533.89,236.77,533.89,404.41z"/>
		<path class="st0" d="M484.27,403.56c0,132.38-82.62,239.73-184.58,239.73c-101.93,0-184.58-107.35-184.58-239.73
			c0-132.37,82.64-239.72,184.58-239.72C401.64,163.84,484.27,271.18,484.27,403.56z"/>
		<path d="M299.74,710.44c-31.97,0-63.04-8.1-92.28-24.16c-28.17-15.48-53.46-37.54-75.19-65.73
			c-44.56-57.73-68.99-134.54-68.99-216.14c0-81.58,24.43-158.36,68.99-216.15c21.73-28.14,47.02-50.25,75.19-65.72
			c29.24-16.01,60.31-24.14,92.28-24.14c32.05,0,63.19,8.13,92.3,24.14c28.23,15.47,53.53,37.58,75.25,65.72
			c44.51,57.79,69.05,134.56,69.05,216.15c0,81.6-24.54,158.41-69.05,216.14c-21.71,28.19-47.02,50.25-75.25,65.73
			C362.93,702.33,331.79,710.44,299.74,710.44z M299.74,103.31c-61.75,0-119.84,31.23-163.6,87.98
			c-43.85,56.86-68.09,132.58-68.09,213.13c0,80.57,24.24,156.25,68.09,213.2c43.75,56.73,101.84,87.95,163.6,87.95
			c61.84,0,119.89-31.22,163.66-87.95c43.91-56.95,68.07-132.63,68.07-213.2c0-80.54-24.16-156.27-68.07-213.13
			C419.63,134.54,361.58,103.31,299.74,103.31z"/>
		<g>
			<g>
				<path class="st0" d="M90.84,300.24c-0.41-0.21-2.44,2.01-2.67,2.19c-5.04,5.12-7.91,14.94-6.14,21.96
					c0.5,1.98,1.49,4.21,2.84,5.86c2.03,2.58,4.95,4.98,8.12,5.87c1.91,0.49,4.01,0.64,5.92,0.44c8.52-0.86,14.72-7.09,16.92-15.16
					c0.5-1.65,0.76-3.31,0.93-5c0.09-0.56,0.67-5.43,0.33-5.63l-7.44-3.56c0.3,0.15,0.36,2.16,0.36,2.43
					c0.22,1.96,0.25,4.05,0.06,6.05c-0.29,3.98-1.93,8.57-5.55,10.78c-6.63,4.19-15.17-1.76-15.26-9.11
					c-0.06-3.97,1.64-6.99,4.32-9.91c0.38-0.41,3.7-4.18,4.01-3.99C97.57,303.47,90.84,300.31,90.84,300.24z"/>
			</g>
			<g>
				<path class="st0" d="M104.05,259.45l-4.56,8.02l22.45,27.49l4.84-7.6l-4.76-5.38l6.53-12.47l7.47,0.41l3.66-7.97L104.05,259.45z
					 M117.76,277.01l-8.39-9.54l12.99,1.42L117.76,277.01z"/>
			</g>
			<g>
				<path class="st0" d="M135.63,208.05l5.46,4.46c-0.28-0.22-3.47,2.1-3.68,2.24c-1.98,1.45-4.33,3.3-5.47,5.53
					c-0.83,1.65-1.11,4.15,0.95,4.68c1.85,0.49,3.75-0.7,5.18-1.67c2.74-1.96,4.55-4.25,7.81-5.24c3.8-1.16,9.04,0,10.95,3.79
					c1.34,2.52,1.9,6.47,1.01,9.24c-1.16,3.68-3.55,6.78-6.7,9.11c-0.44,0.33-5.26,4.2-5.47,4.06l-5.88-4.91
					c0.44,0.35,4.26-1.99,4.68-2.22c2.33-1.3,5.16-3.22,6.22-5.76c0.77-1.88-0.1-4.78-2.39-4.52c-3.52,0.39-5.57,3.16-8.22,5.15
					c-2.53,1.98-6.2,3.04-9.32,1.98c-1.83-0.61-3.8-1.48-4.88-3.04c-4.38-6.19-0.72-14.28,4.31-18.72
					C130.84,211.66,134.85,207.54,135.63,208.05z"/>
			</g>
			<g>
				<path class="st0" d="M166.93,173.54c0,0,4.88,5.06,4.88,5.09c-0.21-0.24-3.71,1.67-3.97,1.81c-2.11,1.16-4.7,2.7-6.06,4.77
					c-1.11,1.54-1.64,3.99,0.34,4.78c1.75,0.69,3.79-0.24,5.38-1.03c2.86-1.61,5.01-3.68,8.4-4.22c3.88-0.68,8.91,1.14,10.3,5.08
					c1.04,2.76,1.13,6.72-0.07,9.32c-1.69,3.5-4.45,6.32-7.76,8.19c-0.64,0.29-5.88,3.56-5.99,3.33l-5.29-5.52
					c0.4,0.39,4.58-1.53,5-1.7c2.39-0.96,5.48-2.52,6.88-4.93c1.02-1.72,0.44-4.72-1.84-4.73c-3.54-0.14-5.94,2.41-8.75,4.07
					c-2.82,1.68-6.47,2.21-9.59,0.81c-1.65-0.81-3.48-1.93-4.43-3.7c-3.47-6.6,1.07-14.2,6.68-17.95
					C161.78,176.55,166.22,172.94,166.93,173.54z"/>
			</g>
			<g>
				<path class="st0" d="M203.54,145.19l-8.13,4.2l3.69,35.26l8.23-3.69l-1.03-7.13l12.21-6.89l6.05,4.44l7.49-4.71L203.54,145.19z
					 M205.42,167.36l-1.89-12.57l10.18,8.24L205.42,167.36z"/>
			</g>
			<g>
				<polygon class="st0" points="252.83,157.61 256.44,156.35 262.37,119.87 253.83,121.66 251.05,142.38 237.92,126.37 
					228.56,128.96 				"/>
			</g>
			<g>
				<path class="st0" d="M303.27,116.51h-9.19l-12.99,33.01l8.99,0.5l2.37-6.83l14.04-0.43l3.34,6.76l8.76-0.79L303.27,116.51z
					 M294.65,137.07l4.25-12.01l5.15,12.01H294.65z"/>
			</g>
			<g>
				<path class="st0" d="M389.85,138.13c-2.1-2.28-5.23-3.59-7.97-5.06c-2.33-1.27-4.75-2.56-7.15-3.87
					c-0.06-0.08-1.69-0.94-1.69-0.94l-15.97,29.36l7.44,4.38l6.64-11.85c0,0,5.09,0.44,4.7,7.95l-0.38,9.31l7.73,4.32l-0.14-18.4
					c0,0,5.41,1.32,8.07-4.22C392.76,145.82,392.17,140.77,389.85,138.13z M382.81,145.69c-4.18,3.6-8.85-2.13-8.85-2.13l3.7-5.87
					C386.84,141.35,382.81,145.69,382.81,145.69z"/>
			</g>
			<g>
				<path class="st0" d="M432.31,170.27c-7.5-7.31-18.87-7.84-25.43-1.13c-6.63,6.66-5.87,17.99,1.61,25.34
					c7.43,7.35,18.78,7.92,25.42,1.22C440.51,189.04,439.72,177.66,432.31,170.27z M427.78,189.63c-3.88,3.96-10.43,3.86-14.53-0.24
					c-4.16-4.11-4.41-10.61-0.48-14.6c3.93-3.97,10.41-3.85,14.59,0.22C431.52,179.09,431.69,185.63,427.78,189.63z"/>
			</g>
			<g>
				<path class="st0" d="M470.11,213.58c-7.13-7.71-18.46-8.96-25.3-2.63c-6.94,6.28-6.86,17.68,0.19,25.46
					c7.04,7.75,18.39,8.98,25.31,2.61C477.23,232.73,477.15,221.33,470.11,213.58z M464.57,232.59c-4.2,3.8-10.65,3.25-14.56-1.02
					c-3.91-4.35-3.72-10.81,0.3-14.63c4.16-3.68,10.68-3.23,14.57,1.11C468.81,222.33,468.68,228.87,464.57,232.59z"/>
			</g>
			<g>
				<polygon class="st0" points="465.08,275.48 468.85,283.58 493.41,273.43 498.03,284.25 504.14,282.04 491.5,252.14 
					485.89,254.71 490.99,264.97 				"/>
			</g>
			<g>
				<path class="st0" d="M517.78,333.08l-7.01,0.98c0.35-0.03,0.79-3.97,0.86-4.27c0.28-2.4,0.51-5.41-0.35-7.75
					c-0.7-1.68-2.32-3.6-4.1-2.49c-1.63,1.02-1.99,3.27-2.21,4.99c-0.49,3.31-0.05,6.22-1.59,9.24c-1.66,3.61-6.03,6.57-10.13,5.49
					c-2.81-0.79-6.1-3.06-7.5-5.51c-1.9-3.42-2.57-7.3-2.12-11.14c0.03-0.61,0.45-6.79,0.75-6.79l7.52-1.01
					c-0.56,0.1-1.39,4.52-1.52,4.98c-0.57,2.56-1.15,6,0,8.5c0.83,1.84,3.59,3.08,4.93,1.3c2.12-2.84,1.48-6.22,1.76-9.51
					c0.31-3.28,2.03-6.59,4.94-8.24c1.63-0.9,3.68-1.8,5.57-1.49c7.51,1.06,10.96,9.13,10.76,15.95
					C518.35,327.13,518.63,332.82,517.78,333.08z"/>
			</g>
		</g>
		<g>
			<g>
				<path d="M468.8,445.38c-3.01-5.46-10.77-7.29-15.05-3.33c-4.23,3.93-4.99,11.01-3.08,10.54c1.9-0.48,4.25-3.57,6.97-4.43
					c2.95-0.94,5.78,1.11,7.36,5.15c0.91,2.32-1.4,11.06-4.67,11.8c-9.35,2.14-15.68-3.41-24.79-10.13c-5.25-3.89-1.91-7.45,0-17.91
					c0.82-4.58,1.73-9.98-0.32-20.29c-1.19-5.88,1.74-8.78,3.56-9.73c1.81-0.95,2.49-1.15,2.22-2.14c-0.24-0.86-2.3-1.59-3.65-1.58
					c-6.89,0.08-7.45,6.01-8.94,7.21c-2.8,2.2-3.49-0.64-7.77-3.01c-4.28-2.38-10.78-4.92-14.43-5.95
					c-3.23-0.91-7.44-5.98-4.27-10.54c0.91-1.29,0.98-2.08,0.58-2.47c-1.23-1.15-6.87,1.55-6.99,5.72
					c-0.18,6.09,3.62,11.95,0.32,13.94c-3.01,1.83-7.91,6.09-8.94,11.24c-0.24,1.23-1.4,3.41-1.63,5.09
					c-0.25,1.77-0.12,3.13-1.3,3.33c-2.45,0.4-6.19-3.37-10.93-4.12c-3.89-0.62-9.1,0.45-13.31,2.06
					c-7.92,3.02-15.61,15.38-6.41,26.07c8.94,10.41,18.85,3.25,21.23,0.4c2.37-2.85,0.98-3.55-4.12-1.5
					c-8.71,3.47-18.34-7.33-10.61-15.06c7.29-7.3,17.11,0.56,18.69,6.97c0.75,3.03,4.59,9.83-4.59,23.86
					c-3.44,5.25-9.23,12.07-13.54,16.4c-9.1,9.11-25.94,16.54-30.11,18.38c-4.67,2.07-10.38,7.99-14.65,6.98
					c-9-2.18-14.33-7.84-13.39-29.71c0.3-6.93-0.63-13.93-0.79-19.57c-0.24-8.4,0.59-18.12,1.27-23.6
					c1.04-8.33-2.61-22.74,8.32-33.76c8.34-8.39,17.03-10.29,22.1-12.03c4.47-1.55,10.86-2.54,18.54,2.93
					c2.79,1.98,9.67,1.97,8.31,8.62c-0.51,2.51-1.24,4.18-4.04,5.38c-3.65,1.59-5.95-2.13-6.82-1.74c-0.74,0.34-0.83,1.33,0.64,3.88
					c3.33,5.79,12.08,5.41,15.76,1.27c5.7-6.41,1.39-12.51,4.12-13.86c4.99-2.45,16.56-10.14,13.54-21.55
					c-2.01-7.62-8.87-8.63-10.77-7.68c-1.9,0.95-2.69,1.18,2.45,4.28c4.43,2.66,1.77,8.68-0.39,11.24
					c-4.59,5.47-22.5,3.1-23.13-2.06c-0.66-5.38,5.07-6.58,5.31-22.74c0.23-15.68-9.6-23.28-9.6-31.84c0-8.56,3.73-12.52,6.89-13.38
					c5.09-1.4,11.97,5.37,6.82,9.02c-2.43,1.71-4.16,2.12-4.04,2.7c0.18,0.96,3.64,1,5.22,0.8c6.74-0.87,8.66-11.23,3.89-16.01
					c-5.07-5.06-13.23-5.31-0.87-10.54c12.36-5.23,16.98-6.03,22.26-5.38c7.92,0.95,9.81,6.43,10.3,8.94
					c0.56,2.94-1.06,6.31-3.59,8.38c-1.56,1.28-5.77,2.41-8.77,0.34c-2.3-1.58-3.17-5.07-4.28-5.64c-0.96-0.46-1.74,1.17-0.24,5.55
					c1.9,5.55,7.77,7.85,12.59,7.61c4.68-0.23,9.87-3.95,11.18-7.61c4.6-12.82-3.57-23.13-10.77-26.69
					c-5.72-2.83-11.65-0.48-11.89-3.89c-0.55-7.99-0.63-21.7-14.1-26.06c-6.48-2.1-20.12,3.1-13.39,16.81
					c2.76,5.58,11.33,7.52,14.66,4.18c3.33-3.32,4.27-3.55-3.96-2.6c-6.58,0.75-8.35-8.6-2.46-11.41
					c3.18-1.51,11.08,1.11,11.17,11.64c0.02,2.37,0.08,7.85-2.61,10.38c-3.74,3.53-11.33,9.03-19.4,13.22
					c-7.93,4.12-13.06,6.78-15.93,7.13c-8.8,1.12-4.27-6.03-7.84-9.28c-0.98-0.88-1.85-1.22-2.22-0.62
					c-0.29,0.46,0.65,2.2,0.31,4.04c-1.03,5.78-8.24,7.13-12.75,6.98c-6.64-0.23-11.33-0.96-13.22-6.66
					c-0.92-2.75-2.33-8.78-2.14-14.97c0.21-6.71,2.1-13.62,3.09-17.83c1.9-8.07,3.57-18.45,16.56-21.78
					c5.78-1.48,12.44-1.11,14.65,7.44c0.72,2.76-1.19,6.42-6.1,7.13c-5.98,0.87-7.52-7.92-8.94-6.5c-1.43,1.44-0.24,8.25,2.38,10.38
					c4.74,3.89,13.23,6.35,18.45-1.26c5.23-7.61,2.83-13.08,1.03-16.32c-2.06-3.73-7.78-7.7-0.55-9.59
					c7.52-1.99,9.63-5.79,11.96-9.35c2.85-4.36,2.21-9.59,4.11-10.06c1.91-0.46,6.62,0.07,10.38-4.34
					c2.69-3.17,2.21-9.85,0.55-11.97c-2.53-3.24-8.39-7.04-4.59,3.73c2.58,7.3-7.33,6.59-10.62,2.61
					c-4.91-5.94-8.4-11.8-19.48-14.74c-6.86-1.81-13.15,0.96-15.53-1.42c-1.37-1.37-1.08-9.01-4.52-13.4
					c-2.55-3.24-6.64-3.75-9.51-3.49c-4.49,0.43-8.02,6.46-6.57,7.37c2.13,1.35,4.59-3.09,8.63,0.08c3.3,2.6,5.7,9.99,3.25,13.79
					c-3.37,5.21-12.84,15.29-12.91,22.1c-0.08,6.66-0.39,33.11-3.96,43.65c-2.69,7.93-6.04,9.24-7.68,9.74
					c-1.82,0.55-10.85-4.37-13.7-9.1c-2.85-4.77-11.17-19.09-3.73-25.12c0.92-0.74,3.4-2.85,6.97-1.91
					c2.52,0.69-0.47-4.51-4.36-5.06c-4.73-0.67-8.24,0.72-10.7,4.68c-4.12,6.66-3.17,5.95-10.69,2.14
					c-5.52-2.79-13.63-1.11-17.91-0.95c-10.86,0.4-13.07-9.98-6.81-11.33c3.01-0.65,4.68-1.65,5.11-2.55
					c0.56-1.16-0.89-2.2-4.09-2.2c-5.7,0-8.63,2.13-9.03,5.23c-0.61,4.73,1.72,8.08-3.88,9.26c-2.61,0.55-3.87-1.87-8.55,0.63
					c-3.25,1.75-5.18,9.81-3.57,9.98c0.71,0.09,3.59-2.82,5.62-4.67c2.77-2.54,5.87-1.36,10.78,0.63c3.07,1.23,4.83,3.8,2.61,7.76
					c-2.91,5.2-4.2,12.68,0.56,17.91c4.74,5.22,13.31,6.32,18.22,0.94c1.93-2.11,5.93-13.47-2.62-4.11c-2.1,2.29-7.45,2.14-9.59,0.8
					c-2.59-1.63-3.91-8.55,0.08-13.86c3.94-5.26,9.28-5.63,11.65-5.86c2.6-0.27,13.55,3.04,16.31,7.99
					c4.28,7.68,5.57,10.13,9.82,15.77c5.39,7.13,11.25,9.43,18.22,14.42c11.65,8.35,3.57,21,4.04,29.39
					c0.17,3.08-2.77,3.65-4.04,1.19c-2.76-5.35-6.89-9.43-13.39-8.16c-3.76,0.73-8.63,5.38-7.21,6.81c1.43,1.44,7.77-1.27,9.51,0.32
					c4.52,4.11,4.39,8.17,1.74,11.24c-1.98,2.3-9.5,6.82-12.6,3.25c-4.92-5.68-7.21-11.8-14.33-14.82
					c-7.36-3.11-15.53-1.98-22.66-3.41c-7.13-1.43-9.47-3.88-9.43-8.63c0.08-7.85-1.58-8.46-3.73-3.17
					c-2.22,5.46-2.53,11.18,1.5,14.58c1.15,0.95,2.85,3.24-1.42,7.61c-7.03,7.15-12.71,12.02-17.83,9.57
					c-6.82-3.24-6.12-12.08-1.66-14.02c3.64-1.58,6.14-1.17,6.02-2.29c-0.08-0.72-4.01-2.41-8.4-1.44
					c-9.9,2.22-10.29,12.07-7.68,16.96c3.8,7.13,5.42,9.25,0.71,11.72c-6.98,3.65-9.85-4.27-11.73-3.55
					c-1.27,0.46-0.24,5.38,2.62,8.23c2.85,2.85,7.32,4.58,16.31-0.8c10.22-6.1,12.36-5.23,15.68-7.13c3.33-1.9,9.59-6.73,10.7-4.59
					c1.47,2.83,0.17,8.87,5.79,13.16c4.99,3.79,11.04,2.63,15.36-1.36c4.12-3.79,4.21-12.19,2.14-12.5
					c-3.33-0.51-2.06,9.82-10.77,8.16c-4.31-0.83-5.84-10.86-0.95-16.73c5.15-6.17,14.2-4.28,19.17,2.39
					c6.58,8.79,4.37,15.29,5.79,32.39c1.43,17.11,8.79,22.5,14.42,27.56c8.39,7.57,16.24,19.09,16.15,34.87
					c-0.07,13.49,0.72,18.34,0.72,24.8c0,10.48-1.12,27.84-5.63,37.62c-2.26,4.89-5.47,9.67-8.88,8.72c-2.84-0.8-7-3.77-12.84-8.57
					c-20.36-16.72-30.98-31.2-34.15-39.22c-2.69-6.8-5.73-22.59,4.76-30.74c7.76-6.01,19.88-4.59,24.16,1.12
					c4.28,5.7,3.14,13.37-1.91,14.89c-2.61,0.8-7.05-1.27-9.19-6.03c-2.15-4.78-2.13-9.94-4.35-1.81
					c-1.35,4.91,1.36,10.75,5.38,13.78c4.26,3.23,10.67,3.74,14.35,0.95c12.34-9.33,5.68-25.11,1.34-29.38
					c-4.67-4.6-10.46-8.05-13.62-9.35c-3.26-1.35-0.69-6.31-1.67-9.19c-1.02-3.01-5.46-5.55-6.89-5.55c-1.43,0,0.85,6.58,0.71,9.43
					c-0.08,1.66-6.55,5.55-16.16,11.89c-9.98,6.58-10.94,10.88-18.38,15.92c-7.61,5.16-18.23,2.14-19.25-4.99
					c-0.96-6.66,6.48-6.57,6.42-7.84c-0.08-1.75-6.1-3.01-9.91,0.08c-3.14,2.55-7.2,16.4,4.12,21.87c6.99,3.37,11.96,3.01,16.4,1.42
					c4.2-1.5,6.5-1.18,7.61,3.88c1.34,6.14,3.28,13.08,6.01,19.34c3.25,7.44,2.23,9.87-0.08,10.46c-8.16,2.06-14.02,0.86-19.41,5.55
					c-5.01,4.33-7.4,9.08-10.14,14.18c-2.85,5.28-1.98,19.31,9.91,24.07c11.89,4.75,18.81,0.85,21.94-5.94
					c4.04-8.8-4.2-14.89-5.54-14.02c-2.52,1.63,3.8,13.3-6.97,13.62c-13.38,0.4-16.16-20.6-0.95-24.41
					c12.61-3.14,22.49,0.49,33.36,12.14c5.78,6.2,14.48,17.07,23.84,24.16c6.18,4.68,17.43,14.57,21.54,29.94
					c2.5,9.3,1.04,37.4-2.21,42.85c-11.41,19.09-5.47,24.72-5.47,37.24c0,3.49,2.3,15.53-5.54,19.25c16.8,4.92,38.98,6.9,58.94,3.73
					c-7.76-11.18-3.16-23.57-3.01-30.58c0.28-12.67-3.65-32.08-3.17-43.48c0.81-19.56,12.13-39.23,27.34-42.08
					c15.21-2.84,21.72,6,34.37,8.65c19.81,4.11,26.94-4.43,30.98-13.31c3.95-8.7-1.09-24.41-13.07-24
					c-11.64,0.4-11.26,11.24-9.82,12.12c2.23,1.37,4.27-6.33,9.74-5.23c8.21,1.66,8.79,12.53,2.45,18.07
					c-7.85,6.87-22.36-2.16-30.18-7.04c-8.87-5.55-6.95-7.46-2.85-12.36c4.44-5.32,17.14-25.88,25.19-31.85
					c8-5.95,17.12-10.93,29.07-9.66c11.34,1.21,15.8,19.72,11.8,22.82c-3.09,2.37-8.47,3.33-11.09-4.37
					c-1.25-3.7-2.62-5.24-3.64-0.23c-1.11,5.47,1.82,9.11,5.39,11.81c4.05,3.06,12.1,3.7,17.1-3.1c3.8-5.14,2.06-14.49,3.49-15.46
					c1.42-0.94,18.76,6.14,26.45-3.39C475.06,460.67,471.6,450.45,468.8,445.38z M305.8,211.28c2.85-6.41,6.71-8.55,12.4-11.19
					c5.69-2.64,12.91-0.62,15.56,1.12c2.03,1.34,1.11,3.05-0.61,4.37c-1.73,1.32-2.85,2.75-1.53,3.26c1.32,0.51,5.28,0.66,8.54,0.41
					c3.66-0.3,2.95,2.33,4.17,4.16c1.21,1.84,0.81,5.79,0.4,8.24c-0.4,2.44-0.4,3.36-1.63,4.58c-1.22,1.22-4.98,1.72-7.62,0.2
					c-5.99-3.45-5.9-10.26-6.2-11.18c-0.3-0.91,0.92-2.44,1.11-3.25c0.21-0.82,0.1-0.82-1.01-1.33c-1.12-0.51-1.73,0.62-2.34,0.51
					c-0.61-0.09-0.71-2.13-2.84-2.33c-2.14-0.2-2.44-0.92-3.66-1.22c-1.22-0.31-2.95-0.93-6.61,0.81c-3.66,1.72-2.03,3.66,0.2,3.05
					c1.38-0.38,3.05,1.92,4.78,3.15c1.73,1.22,2.13,4.57,3.26,6.7c1.12,2.13,2.52,5.47,3.35,6.91c0.72,1.24,0.41,4.07-1.72,4.58
					c-4.98,1.19-3.85-0.44-8.54,0.82c-7.21,1.93-9.3,0.74-10.26-0.11c-2.24-1.92-1.74-6.7-1.84-8.93
					C303.05,222.35,302.96,217.68,305.8,211.28z M277.77,363.78c-4.28,5.11-9.98,3.22-13.43,0.73c-3.45-2.51-7.01-7.97-6.78-13.92
					c0.24-5.94,4.99-12.47,8.2-15.68c2.26-2.26,9.03-8.08,11.41-9.63c2.38-1.55,3.57-1.66,3.8,0c0.25,1.67,0.6,6.78,0.84,16.4
					C282.04,351.31,282.04,358.68,277.77,363.78z M294.4,376.14c-0.24-4.28,2.61-13.06,2.61-21.75c0-1.54-0.34-6.14-1.06-13.53
					c-1.07-10.93,0.95-16.29,2.6-18.54c1.67-2.27,6.54-3.8,11.3-4.52c4.75-0.72,9.51,0.04,18.65-1.43c5.94-0.95,8.67-1.18,9.87-0.23
					c1.18,0.94,0.03,3.76-0.24,7.6c-0.36,5.12-1.3,4.52-9.74,7.25c-8.65,2.81-11.53,6.3-13.19,8.92
					c-1.67,2.61-4.82,14.06,2.43,20.62c7.25,6.52,14.68,1.36,16.34,0.4c1.66-0.94,6.03-5.16,6.3-9.55c0.3-4.93,0.9-4.35,2.61-2.5
					c1.24,1.32,1.55,4.63,1.31,7.48c-0.22,2.61,1.27,4.12,0,8.02c-1.9,5.83-5.54,7.24-7.84,9.15c-4.93,4.1-10.09,3.48-19.19,8.02
					c-3.57,1.79-5.58,1.98-7.5,2.68c-1.86,0.67-3.73,2.14-7.65,1.43C296.49,384.64,294.64,380.42,294.4,376.14z M336.34,344.96
					c-0.54,0.93-0.99,1.36-1.84,3.25c-1.41,3.17-1.41,6.25-4.04,7.46c-2.62,1.2-5.37,0.63-6.99-0.59c-1.9-1.43-2.46-3.87-2.46-4.96
					c0-2.11,1.16-4.14,2.21-5.07c2.46-2.21,4.04-2.75,6.67-2.71c2.5,0.04,3.29-0.04,4.95,0.42
					C336.16,343.11,336.76,344.26,336.34,344.96z M419.44,445.44c-3.01,1.74-8.98,3.11-16.4,5.69c-7.42,2.59-9.23,4.22-11.91,1.9
					c-1.85-1.61-0.18-4.67-1.3-7.94c-1.04-3.04-1.12-5.36,0-7.25c1.13-1.9,5.61-2.48,6.56-2.59c2.86-0.35,3.63-1.82,3.97-2.34
					c0.35-0.51,0.6-0.81-3.63-1.29c-3.8-0.43-4.09-3.68-4.31-5.35c-0.26-1.99,1.33-7.91,3.88-9.59c2.24-1.46,8.2-5.25,15.88-2.49
					c8.71,3.13,12.26,8.1,14.07,14.76C427.86,434.83,422.29,443.8,419.44,445.44z"/>
			</g>
			<g>
				<path d="M229.66,270.04c0,5.67-4.59,10.27-10.26,10.27c-5.67,0-10.27-4.6-10.27-10.27s4.6-10.25,10.27-10.25
					C225.07,259.8,229.66,264.37,229.66,270.04z"/>
				<radialGradient id="SVGID_1_" cx="219.3979" cy="270.0503" r="7.0718" gradientUnits="userSpaceOnUse">
					<stop  offset="0" style="stop-color:#FFFFFF"/>
					<stop  offset="0.1135" style="stop-color:#F9F1EE"/>
					<stop  offset="0.3486" style="stop-color:#E3C3B9"/>
					<stop  offset="0.6821" style="stop-color:#C67E70"/>
					<stop  offset="0.8483" style="stop-color:#B85A51"/>
				</radialGradient>
				<path class="st2" d="M226.47,270.04c0,3.91-3.17,7.08-7.07,7.08c-3.9,0-7.08-3.16-7.08-7.08c0-3.9,3.17-7.06,7.08-7.06
					C223.3,262.98,226.47,266.14,226.47,270.04z"/>
			</g>
			<g>
				<path d="M366.56,234.4c0,5.67-4.6,10.27-10.27,10.27c-5.67,0-10.25-4.6-10.25-10.27c0-5.67,4.59-10.26,10.25-10.26
					C361.96,224.14,366.56,228.73,366.56,234.4z"/>
				<radialGradient id="SVGID_2_" cx="356.2917" cy="234.4054" r="7.0731" gradientUnits="userSpaceOnUse">
					<stop  offset="0" style="stop-color:#FFFFFF"/>
					<stop  offset="0.1135" style="stop-color:#F9F1EE"/>
					<stop  offset="0.3486" style="stop-color:#E3C3B9"/>
					<stop  offset="0.6821" style="stop-color:#C67E70"/>
					<stop  offset="0.8483" style="stop-color:#B85A51"/>
				</radialGradient>
				<path class="st3" d="M363.37,234.4c0,3.91-3.18,7.08-7.08,7.08c-3.9,0-7.07-3.16-7.07-7.08c0-3.9,3.17-7.06,7.07-7.06
					C360.19,227.34,363.37,230.5,363.37,234.4z"/>
			</g>
			<g>
				<path d="M203.3,345.71c0,5.67-4.59,10.27-10.26,10.27c-5.67,0-10.27-4.6-10.27-10.27c0-5.66,4.6-10.26,10.27-10.26
					C198.7,335.45,203.3,340.05,203.3,345.71z"/>
				<radialGradient id="SVGID_3_" cx="193.0374" cy="345.7232" r="7.0759" gradientUnits="userSpaceOnUse">
					<stop  offset="0" style="stop-color:#FFFFFF"/>
					<stop  offset="0.1135" style="stop-color:#F9F1EE"/>
					<stop  offset="0.3486" style="stop-color:#E3C3B9"/>
					<stop  offset="0.6821" style="stop-color:#C67E70"/>
					<stop  offset="0.8483" style="stop-color:#B85A51"/>
				</radialGradient>
				<path class="st4" d="M200.11,345.71c0,3.91-3.17,7.09-7.08,7.09c-3.91,0-7.08-3.17-7.08-7.09c0-3.9,3.17-7.07,7.08-7.07
					C196.95,338.65,200.11,341.81,200.11,345.71z"/>
			</g>
			<g>
				<path d="M256.54,442.68c0,5.68-4.6,10.27-10.27,10.27c-5.67,0-10.26-4.59-10.26-10.27c0-5.67,4.59-10.25,10.26-10.25
					C251.94,432.43,256.54,437.01,256.54,442.68z"/>
				<radialGradient id="SVGID_4_" cx="246.2753" cy="442.6852" r="7.0718" gradientUnits="userSpaceOnUse">
					<stop  offset="0" style="stop-color:#FFFFFF"/>
					<stop  offset="0.1135" style="stop-color:#F9F1EE"/>
					<stop  offset="0.3486" style="stop-color:#E3C3B9"/>
					<stop  offset="0.6821" style="stop-color:#C67E70"/>
					<stop  offset="0.8483" style="stop-color:#B85A51"/>
				</radialGradient>
				<path class="st5" d="M253.35,442.68c0,3.91-3.17,7.08-7.08,7.08c-3.9,0-7.07-3.16-7.07-7.08c0-3.89,3.17-7.07,7.07-7.07
					C250.18,435.61,253.35,438.79,253.35,442.68z"/>
			</g>
			<g>
				<path d="M206.63,512.09c0,5.66-4.59,10.25-10.26,10.25s-10.27-4.59-10.27-10.25c0-5.67,4.6-10.27,10.27-10.27
					S206.63,506.42,206.63,512.09z"/>
				<radialGradient id="SVGID_5_" cx="196.3654" cy="512.0784" r="7.0731" gradientUnits="userSpaceOnUse">
					<stop  offset="0" style="stop-color:#FFFFFF"/>
					<stop  offset="0.1135" style="stop-color:#F9F1EE"/>
					<stop  offset="0.3486" style="stop-color:#E3C3B9"/>
					<stop  offset="0.6821" style="stop-color:#C67E70"/>
					<stop  offset="0.8483" style="stop-color:#B85A51"/>
				</radialGradient>
				<path class="st6" d="M203.44,512.09c0,3.89-3.17,7.06-7.08,7.06c-3.9,0-7.06-3.17-7.06-7.06c0-3.91,3.16-7.09,7.06-7.09
					C200.27,505,203.44,508.18,203.44,512.09z"/>
			</g>
			<g>
				<path d="M350.65,407.99c0,5.66-4.59,10.27-10.26,10.27c-5.67,0-10.27-4.61-10.27-10.27c0-5.67,4.59-10.27,10.27-10.27
					C346.05,397.72,350.65,402.32,350.65,407.99z"/>
				<radialGradient id="SVGID_6_" cx="340.3846" cy="407.9831" r="7.0759" gradientUnits="userSpaceOnUse">
					<stop  offset="0" style="stop-color:#FFFFFF"/>
					<stop  offset="0.1135" style="stop-color:#F9F1EE"/>
					<stop  offset="0.3486" style="stop-color:#E3C3B9"/>
					<stop  offset="0.6821" style="stop-color:#C67E70"/>
					<stop  offset="0.8483" style="stop-color:#B85A51"/>
				</radialGradient>
				<path class="st7" d="M347.46,407.99c0,3.91-3.16,7.07-7.07,7.07c-3.9,0-7.08-3.16-7.08-7.07c0-3.91,3.17-7.09,7.08-7.09
					C344.3,400.9,347.46,404.08,347.46,407.99z"/>
			</g>
			<g>
				<path d="M454.26,396.58c0,5.67-4.59,10.27-10.25,10.27c-5.68,0-10.27-4.6-10.27-10.27c0-5.67,4.59-10.26,10.27-10.26
					C449.67,386.32,454.26,390.91,454.26,396.58z"/>
				<radialGradient id="SVGID_7_" cx="444.0049" cy="396.5813" r="7.0759" gradientUnits="userSpaceOnUse">
					<stop  offset="0" style="stop-color:#FFFFFF"/>
					<stop  offset="0.1135" style="stop-color:#F9F1EE"/>
					<stop  offset="0.3486" style="stop-color:#E3C3B9"/>
					<stop  offset="0.6821" style="stop-color:#C67E70"/>
					<stop  offset="0.8483" style="stop-color:#B85A51"/>
				</radialGradient>
				<path class="st8" d="M451.08,396.58c0,3.9-3.17,7.08-7.07,7.08c-3.91,0-7.08-3.17-7.08-7.08c0-3.91,3.17-7.08,7.08-7.08
					C447.91,389.51,451.08,392.67,451.08,396.58z"/>
			</g>
			<g>
				<path d="M415.77,537.75c0,5.67-4.59,10.26-10.27,10.26c-5.67,0-10.26-4.59-10.26-10.26c0-5.67,4.59-10.26,10.26-10.26
					C411.18,527.49,415.77,532.08,415.77,537.75z"/>
				<radialGradient id="SVGID_8_" cx="405.5048" cy="537.7509" r="7.0745" gradientUnits="userSpaceOnUse">
					<stop  offset="0" style="stop-color:#FFFFFF"/>
					<stop  offset="0.1135" style="stop-color:#F9F1EE"/>
					<stop  offset="0.3486" style="stop-color:#E3C3B9"/>
					<stop  offset="0.6821" style="stop-color:#C67E70"/>
					<stop  offset="0.8483" style="stop-color:#B85A51"/>
				</radialGradient>
				<path class="st9" d="M412.58,537.75c0,3.9-3.17,7.08-7.08,7.08c-3.9,0-7.07-3.17-7.07-7.08c0-3.91,3.17-7.08,7.07-7.08
					C409.41,530.67,412.58,533.84,412.58,537.75z"/>
			</g>
		</g>
		<g>
			<path class="st10" d="M226.36,180.11c-22.38,12.32-42.47,29.94-59.7,52.36c-35.32,45.96-54.77,107.02-54.77,171.93
				c0,64.94,19.45,126,54.77,171.96c17.23,22.42,37.31,40.04,59.7,52.36c23.25,12.8,47.95,19.29,73.42,19.29
				c25.47,0,50.18-6.49,73.42-19.29c22.39-12.32,42.48-29.94,59.71-52.36c35.31-45.96,54.76-107.02,54.76-171.96
				c0-64.91-19.45-125.97-54.76-171.93c-17.23-22.42-37.32-40.04-59.71-52.36c-23.24-12.81-47.94-19.29-73.42-19.29
				C274.31,160.82,249.61,167.3,226.36,180.11z M229.33,623.32c-21.63-11.91-41.07-28.97-57.78-50.71
				c-16.76-21.81-29.92-47.22-39.12-75.52c-9.54-29.34-14.37-60.52-14.37-92.68c0-32.13,4.83-63.31,14.37-92.65
				c9.2-28.3,22.36-53.72,39.12-75.52c16.71-21.75,36.15-38.81,57.78-50.72c22.32-12.28,46.03-18.53,70.44-18.53
				c24.42,0,48.12,6.25,70.44,18.53c21.63,11.91,41.07,28.97,57.78,50.72c16.76,21.8,29.92,47.22,39.11,75.52
				c9.54,29.34,14.37,60.52,14.37,92.65c0,32.16-4.83,63.33-14.37,92.68c-9.19,28.3-22.36,53.71-39.11,75.52
				c-16.72,21.75-36.16,38.81-57.78,50.71c-22.32,12.28-46.02,18.53-70.44,18.53C275.36,641.85,251.66,635.61,229.33,623.32z"/>
		</g>
	</g>
	<path id="SVGID_x5F_9_x5F_" class="st11" d="M145.36,604.14c3.58,5.7,53.09,81.54,146.69,83.39
		c98.06,1.94,151.07-79.17,153.72-83.39"/>
	<text>	<textPath  xlink:href="#SVGID_x5F_9_x5F_" startOffset="17.5215%">
	</textPath>
</text>
	<g>
		<path class="st0" d="M165.28,600.65l3.52-2.91l12.42,15.01l-3.52,2.92l-4.31-5.2l-15.49,12.83l-3.83-4.63l15.49-12.83
			L165.28,600.65z"/>
		<path class="st0" d="M184.09,649.04l1.69-4.03l-6.68-5.83l-3.76,2.23l-4.82-4.21l22.74-13.01l5.51,4.81l-9.84,24.27L184.09,649.04
			z M183.26,636.74l4.4,3.84l3.58-8.54L183.26,636.74z"/>
		<path class="st0" d="M225.18,656.51c-0.87,1.42-2.22,2.47-4.05,3.16c-0.96,0.35-2.1,0.41-3.43,0.18
			c-1.33-0.23-2.73-0.79-4.18-1.69l-3.17-1.95l-5.03,8.17l-5.12-3.15l12.94-21.02l8.29,5.11c2.44,1.5,3.94,3.29,4.53,5.39
			C226.53,652.8,226.27,654.73,225.18,656.51z M212.73,652.31l3.17,1.95c0.78,0.48,1.53,0.63,2.27,0.44
			c0.73-0.18,1.33-0.65,1.79-1.4c0.46-0.75,0.61-1.5,0.44-2.27c-0.16-0.76-0.63-1.38-1.38-1.84l-3.17-1.95L212.73,652.31z"/>
		<path class="st0" d="M228.93,677.16l9.79-22.66l5.52,2.39l-9.79,22.66L228.93,677.16z"/>
		<path class="st0" d="M252.55,682.64c-1.83-2.9-2.31-6.12-1.46-9.68c0.85-3.56,2.75-6.21,5.68-7.95c2.94-1.74,6.13-2.2,9.59-1.38
			c3.45,0.83,6.08,2.68,7.89,5.56c1.81,2.88,2.28,6.1,1.43,9.65c-0.85,3.56-2.74,6.21-5.67,7.97c-2.93,1.76-6.11,2.23-9.56,1.4
			C257.01,687.4,254.38,685.54,252.55,682.64z M266.8,682.04c1.45-0.98,2.43-2.52,2.93-4.61c0.5-2.1,0.33-3.91-0.52-5.44
			c-0.85-1.53-2.24-2.52-4.17-2.99c-1.93-0.46-3.62-0.2-5.07,0.78c-1.45,0.98-2.43,2.52-2.93,4.61c-0.5,2.1-0.33,3.91,0.52,5.44
			s2.24,2.52,4.17,2.99C263.66,683.27,265.35,683.02,266.8,682.04z"/>
		<path class="st0" d="M290.76,689.13c-2.39-2.44-3.55-5.48-3.46-9.14c0.09-3.66,1.38-6.64,3.88-8.97c2.5-2.32,5.53-3.44,9.07-3.36
			c2.74,0.06,5.16,0.85,7.26,2.35c2.1,1.5,3.54,3.55,4.32,6.15l-7.17-0.17c-0.9-1.83-2.37-2.76-4.44-2.81
			c-2.06-0.05-3.7,0.56-4.91,1.82c-1.21,1.26-1.85,2.97-1.9,5.13c-0.05,2.16,0.5,3.89,1.65,5.21c1.15,1.32,2.76,2,4.82,2.05
			c2.06,0.05,3.58-0.82,4.56-2.6l7.17,0.17c-0.9,2.56-2.44,4.54-4.61,5.94c-2.17,1.4-4.62,2.07-7.36,2.01
			C296.12,692.82,293.15,691.56,290.76,689.13z"/>
		<path class="st0" d="M342.22,687.55l-2.24-3.76l-8.65,1.91l-0.44,4.35l-6.25,1.38l3.03-26.03l7.14-1.58l13.69,22.33L342.22,687.55
			z M331.82,680.92l5.7-1.26l-4.75-7.95L331.82,680.92z"/>
		<path class="st0" d="M368.83,655.96l-2.39-3.9l16.6-10.19l2.39,3.9l-5.75,3.53l10.53,17.14l-5.12,3.15l-10.53-17.14L368.83,655.96
			z"/>
		<path class="st0" d="M402.36,625.66l3.01,3.44l-6.71,5.89l3.5,3.99l5.92-5.2l3.01,3.44l-5.92,5.2l3.78,4.31l6.71-5.89l3.02,3.44
			l-11.23,9.86l-16.33-18.61L402.36,625.66z"/>
		<path class="st0" d="M439.84,620.72l-4.08-1.56l-5.6,6.87l2.35,3.68l-4.04,4.96l-13.78-22.29l4.62-5.67l24.59,9.01L439.84,620.72z
			 M427.57,621.97l3.69-4.53l-8.66-3.29L427.57,621.97z"/>
	</g>
</g>
</svg>
