<svg width="511.99143" height="511" xmlns="http://www.w3.org/2000/svg">

 <g>
  <title>Layer 1</title>
  <path stroke="#8373e6" stroke-width="16" fill="none" id="svg_1" d="m500.69944,196.12713c-3.25257,-10.32492 -12.12461,-17.63485 -22.57959,-18.61132l-142.60081,-13.36327l-56.35665,-136.19257c-4.16089,-10.00592 -13.62841,-16.46386 -24.16631,-16.46386s-20.00919,6.45795 -24.14369,16.46386l-56.35665,136.19257l-142.62343,13.36327c-10.45498,0.99592 -19.30817,8.30585 -22.5796,18.61132c-3.25257,10.32493 -0.24875,21.64967 7.65844,28.80787l107.79485,97.56552l-31.7833,144.49453c-2.32542,10.62447 1.66963,21.61076 10.21,27.98312c4.59055,3.44294 9.98387,5.16247 15.39604,5.16247c4.65084,0 9.30546,-1.27603 13.46257,-3.84365l122.96474,-75.89249l122.94214,75.89249c9.01903,5.56317 20.3597,5.05354 28.88122,-1.31882c8.54037,-6.37236 12.53543,-17.35864 10.21,-27.98312l-31.78329,-144.49453l107.79484,-97.56552c7.90343,-7.1582 10.91103,-18.4596 7.65844,-28.80787zm-243.33647,222.8107"/>
 </g>
</svg>