<svg width="511.99143" height="511" xmlns="http://www.w3.org/2000/svg">

 <g>
  <title>Layer 1</title>
  <path fill="#8373e6" id="svg_1" d="m510.65234,185.88281c-3.37109,-10.36718 -12.5664,-17.70703 -23.40234,-18.6875l-147.79687,-13.41797l-58.41016,-136.75c-4.3125,-10.04687 -14.125,-16.53125 -25.04688,-16.53125s-20.73828,6.48438 -25.02343,16.53125l-58.41016,136.75l-147.82031,13.41797c-10.83594,1 -20.01172,8.33985 -23.40235,18.6875c-3.37109,10.36719 -0.25781,21.73828 7.9375,28.92578l111.72266,97.96485l-32.94141,145.08594c-2.41015,10.66796 1.73047,21.69921 10.58203,28.09765c4.75782,3.45703 10.34766,5.1836 15.95704,5.1836c4.82031,0 9.64453,-1.28125 13.95312,-3.85938l127.44531,-76.20312l127.42188,76.20312c9.34766,5.58594 21.10156,5.07422 29.93359,-1.32422c8.85156,-6.39844 12.99219,-17.42969 10.58203,-28.09765l-32.9414,-145.08594l111.72265,-97.96485c8.19141,-7.1875 11.3086,-18.53515 7.9375,-28.92578zm-252.20312,223.72266"/>
 </g>
</svg>