<svg xmlns="http://www.w3.org/2000/svg" viewBox="0 0 1440 320">
  <path fill="#ae84cc" fill-opacity="1" d="M0,96L30,96C60,96,120,96,180,133.3C240,171,300,245,360,272C420,299,480,277,540,256C600,235,660,213,720,218.7C780,224,840,256,900,277.3C960,299,1020,309,1080,298.7C1140,288,1200,256,1260,224C1320,192,1380,160,1410,144L1440,128L1440,0L1410,0C1380,0,1320,0,1260,0C1200,0,1140,0,1080,0C1020,0,960,0,900,0C840,0,780,0,720,0C660,0,600,0,540,0C480,0,420,0,360,0C300,0,240,0,180,0C120,0,60,0,30,0L0,0Z"></path>
</svg>