<?xml version="1.0" standalone="no"?><svg xmlns="http://www.w3.org/2000/svg" viewBox="0 0 1440 320"><path fill="#b92424" fill-opacity="1" d="M0,288L30,282.7C60,277,120,267,180,240C240,213,300,171,360,170.7C420,171,480,213,540,229.3C600,245,660,235,720,229.3C780,224,840,224,900,202.7C960,181,1020,139,1080,144C1140,149,1200,203,1260,208C1320,213,1380,171,1410,149.3L1440,128L1440,0L1410,0C1380,0,1320,0,1260,0C1200,0,1140,0,1080,0C1020,0,960,0,900,0C840,0,780,0,720,0C660,0,600,0,540,0C480,0,420,0,360,0C300,0,240,0,180,0C120,0,60,0,30,0L0,0Z"></path></svg>